PathFileType	4	(X/Y/Z)	D:\TRACE\spot_10-12-23\spot_arm_body_motion_1_10-v60.trc
DataRate	CameraRate	NumFrames	NumMarkers	Units	OrigDataRate	OrigDataStartFrame	OrigNumFrames
100.00	100.00	      27	9	mm	100.00	1751	      7000
Frame#	Time	front left toe			Front right toe			aft left toe			aft right toe			Arm			FL body			FR body			AL Body			AR Body			
		X1	Y1	Z1	X2	Y2	Z2	X3	Y3	Z3	X4	Y4	Z4	X5	Y5	Z5	X6	Y6	Z6	X7	Y7	Z7	X8	Y8	Z8	X9	Y9	Z9	

1751	17.500	-234.93340	8.93300	-433.05643	159.65817	14.52297	-500.42734	-201.65553	15.14158	134.82523	151.57590	110.45437	168.44461	-10.14410	777.54797	-736.94574	-160.53596	599.75287	-505.57635	-7.06197	604.36499	-504.66769	-173.67819	549.01270	375.05225	-31.88842	547.68005	379.44131	
1752	17.510	-234.74232	8.92261	-433.12598	160.20857	14.35728	-500.53021	-200.95131	15.23282	134.66837	149.41991	118.52174	169.79460	-11.01243	777.68793	-737.26080	-162.09076	599.40149	-505.58981	-8.08791	604.16089	-504.16437	-174.86772	548.90155	374.94022	-33.28349	547.57672	379.10077	
1753	17.520	-234.23726	8.59703	-433.10931	160.49609	14.08016	-501.12448	-199.98778	15.36136	134.52292	148.94231	125.70805	171.36104	-11.83208	777.72827	-737.51813	-163.31923	599.06488	-505.59119	-9.21057	603.82526	-504.19080	-176.36292	548.91217	374.88361	-34.54068	547.72723	379.04456	
1754	17.530	-233.53096	8.04470	-433.16132	160.91203	14.05297	-501.12646	-199.30539	15.52213	134.44449	149.60165	132.26329	171.16501	-12.72132	777.81982	-737.78668	-164.89050	598.35541	-505.49469	-10.50583	603.24390	-504.64828	-177.39943	549.20807	375.13919	-35.61962	548.10187	379.03159	
1755	17.540	-232.92174	7.39392	-433.19064	161.54980	13.93834	-501.21896	-198.81810	15.49509	134.36002	150.96078	137.37233	169.28789	-12.94152	777.63751	-737.83490	-166.34033	597.45575	-505.48386	-11.90977	602.05005	-503.48608	-178.70309	549.48383	375.32059	-37.08156	548.57959	379.16489	
1756	17.550	-232.37071	6.68834	-433.22101	162.35931	13.94135	-501.08380	-198.04752	15.38965	134.29350	152.55309	140.33633	167.48845	-12.97954	777.28577	-737.90039	-167.67165	596.58600	-505.34717	-12.88002	601.75916	-503.79773	-179.51782	549.58807	375.61777	-37.85847	548.83929	379.36398	
1757	17.560	-231.90395	6.20838	-433.28235	162.84003	13.88348	-501.11353	-197.61700	15.54167	134.35687	152.71884	140.45166	166.25565	-12.82203	777.08807	-737.81281	-168.99402	596.12408	-504.98874	-15.33905	600.78687	-503.27853	-180.05490	549.82751	375.89825	-38.59901	549.18542	379.51239	
1758	17.570	-231.23834	6.17703	-433.15042	163.56622	13.51789	-501.09702	-196.39001	15.50860	134.21463	152.45786	139.59645	165.25699	-12.37313	776.85358	-737.65344	-170.26096	596.03253	-504.63098	-16.71063	600.81384	-503.19269	-180.66008	549.75159	376.08228	-39.17391	549.23425	379.85681	
1759	17.580	-230.31897	6.53800	-433.04849	163.85567	12.98218	-501.71667	-195.42336	15.67354	134.11432	152.05080	138.29208	163.43976	-11.80850	776.07312	-737.81329	-171.72130	596.15247	-504.42737	-17.36215	601.35071	-502.76239	-181.42624	549.44177	376.31992	-39.75590	548.93591	379.98447	
1760	17.590	-229.29565	6.51376	-432.96466	164.39799	12.89193	-501.83743	-194.51520	15.52187	134.08586	150.17583	138.25592	159.17116	-12.04664	774.92889	-738.61292	-172.55734	596.21802	-504.12219	-18.76703	601.45386	-502.43597	-182.57512	548.90344	376.73965	-40.46368	548.62799	380.62952	
1761	17.600	-228.51057	6.04858	-433.16354	165.99617	12.74175	-501.25977	-193.96451	15.11266	134.21686	148.12538	138.94568	152.08734	-12.85901	773.06842	-740.08301	-173.02283	596.22937	-503.66989	-19.06712	601.43665	-501.96646	-183.38034	548.69354	377.17758	-41.97332	548.38330	380.89862	
1762	17.610	-227.68822	5.53192	-433.28540	166.50610	12.24099	-501.30463	-193.57927	14.83790	134.18835	144.65405	139.58084	143.85265	-14.51616	770.73645	-742.29236	-173.12196	596.22845	-503.34839	-18.64690	601.82947	-501.19824	-184.77922	548.44336	377.48956	-42.82737	548.13806	381.85391	
1763	17.620	-226.80771	5.27375	-433.36304	167.43819	11.81020	-501.29169	-193.16411	14.74432	134.05363	139.73958	139.74202	135.31493	-17.06865	768.21936	-744.68298	-173.45398	596.45642	-503.04431	-19.11274	602.13904	-501.50259	-185.90761	548.34924	377.68811	-43.99181	547.99011	382.15549	
1764	17.630	-225.87766	4.91640	-433.56036	168.57907	11.63692	-501.55478	-192.68575	14.63754	133.86276	135.10532	139.63544	128.35970	-19.65779	765.80511	-747.26434	-173.90364	596.53595	-502.73984	-19.53693	601.94110	-501.15250	-186.62785	548.33124	378.06055	-44.85139	547.80591	382.07349	
1765	17.640	-225.56091	4.70687	-433.64966	169.25949	11.42067	-501.74802	-192.11671	14.54885	133.83815	130.88509	138.04218	123.62811	-21.74100	763.69208	-749.45251	-174.50594	596.08002	-502.51376	-20.33047	601.18958	-501.06531	-187.11174	548.57281	378.29022	-45.51332	547.59442	382.21951	
1766	17.650	-224.88327	3.89539	-433.64291	169.57074	11.29425	-502.05307	-191.20851	14.47683	133.78705	128.29010	135.74004	120.77454	-23.03459	762.00061	-751.20258	-175.67047	595.38629	-502.38977	-21.08172	600.33136	-501.46866	-187.34718	548.72266	378.48917	-45.74484	547.58527	382.28784	
1767	17.660	-224.40460	3.13719	-433.71695	170.10532	11.32276	-502.13037	-190.40327	14.72473	133.67355	127.39417	132.09921	119.48389	-23.49583	760.70813	-752.52161	-176.73820	594.02423	-502.43008	-22.46968	598.94568	-501.82516	-187.23662	549.16650	378.68112	-45.51112	547.91980	382.22580	
1768	17.670	-223.85957	2.24217	-433.53064	170.48456	11.12304	-502.51468	-189.21236	14.83422	133.62608	128.64003	126.80417	119.62811	-22.81274	759.91406	-753.29419	-178.19693	592.46198	-502.45456	-23.98779	597.14807	-501.75034	-186.82790	550.10950	378.77063	-44.96614	548.48145	382.40265	
1769	17.680	-223.15021	1.57017	-433.49042	171.11874	11.07830	-503.10089	-187.97031	15.14738	133.73869	130.56168	119.60258	120.70353	-21.01807	759.52301	-753.73486	-179.54385	591.01428	-502.55911	-25.23909	595.73291	-502.05194	-186.33560	551.21381	378.94855	-44.64262	549.69043	381.79828	
1770	17.690	-223.09384	1.04879	-433.34750	171.84821	11.23045	-502.90781	-186.90955	15.71235	133.65526	133.32074	110.19572	122.79807	-18.44451	759.46686	-753.96930	-180.80431	589.50159	-502.60449	-26.61772	593.95923	-502.55457	-185.99066	552.19965	378.79529	-44.24210	550.65381	381.87436	
1771	17.700	-222.45171	0.30216	-433.21536	173.09978	11.58831	-502.91068	-185.86258	15.59932	133.58934	136.23129	99.14907	125.63673	-16.05189	759.48541	-753.71002	-182.03789	588.16052	-502.59540	-28.20326	592.60150	-503.32730	-185.88573	552.98236	378.90594	-44.38261	551.28528	381.26163	
1772	17.710	-221.44437	-0.21248	-433.37848	173.68651	11.16274	-503.15979	-185.01801	15.53648	133.56369	139.49239	87.95638	129.43730	-13.50510	759.95404	-753.30786	-182.68518	586.97601	-502.75745	-28.36493	591.44507	-503.06091	-186.07495	553.18365	378.72125	-44.40440	551.53577	381.08163	
1773	17.720	-220.66922	-0.53123	-433.39850	174.84592	11.04408	-503.44449	-184.46645	15.56259	133.51060	142.19408	76.21149	134.15216	-11.57075	760.62787	-752.89685	-182.59149	586.39142	-502.81265	-27.98479	590.94043	-503.52310	-186.06557	553.01001	378.81546	-44.51908	551.31097	381.06967	
1774	17.730	-219.88606	-0.65337	-433.56781	175.40005	10.18856	-503.34235	-184.34381	15.91408	133.72928	146.24345	66.35244	139.28670	-10.14125	761.62592	-752.51923	-182.45491	586.26410	-502.91776	-28.14002	590.60284	-503.51965	-186.49907	552.72076	378.59494	-44.83358	550.82678	381.10495	
1775	17.740	-218.79079	-0.45228	-433.66464	176.14732	10.19400	-502.92731	-183.34775	15.05076	133.27831	149.10086	55.85513	143.87531	-9.43535	762.53210	-752.08868	-182.11671	586.63763	-503.09396	-28.25262	590.64954	-503.46161	-186.97252	552.12378	378.62143	-45.25982	550.33014	381.15823	
1776	17.750	-217.30948	-0.17340	-433.90561	177.21619	10.01624	-502.85135	-182.85059	14.62890	133.26646	151.78603	45.79968	147.45325	-9.59986	763.34448	-751.95111	-180.94316	586.79327	-503.00345	-26.48653	590.70667	-503.17081	-187.54039	551.41064	378.56085	-46.10254	549.38806	381.32120	
1777	17.760	-216.13300	-0.21686	-434.02649	178.59764	9.77497	-502.42160	-182.42848	14.11202	133.27429	154.06885	36.26218	149.90871	-10.12320	763.66046	-751.86804	-179.70476	586.83215	-502.94336	-25.22494	590.68280	-502.79352	-188.36002	550.83295	378.55740	-46.77322	548.76721	381.62515	
